# 3ds Max Wavefront OBJ Exporter v0.97b - (c)2007 guruware
# File Created: 25.06.2014 15:12:29

mtllib Mirror.mtl

#
# object Box002
#

v  -1.5000 -12.6000 0.0000
v  -1.5000 -10.4000 0.0000
v  -1.1000 -10.0000 0.0000
v  1.5000 -10.4000 0.0000
v  1.1000 -10.0000 0.0000
v  1.5000 -12.6000 0.0000
v  1.1000 -13.0000 0.0000
v  -1.1000 -13.0000 0.0000
v  -1.1000 -13.0000 56.0000
v  1.1000 -13.0000 56.0000
v  1.5000 -12.6000 56.0000
v  1.1000 -10.0000 56.0000
v  1.5000 -10.4000 56.0000
v  -1.1000 -10.0000 56.0000
v  -1.5000 -10.4000 56.0000
v  -1.5000 -12.6000 56.0000
# 16 vertices

vn 0.0000 0.0000 -1.0000
vn 0.0000 0.0000 1.0000
vn 0.0000 -1.0000 0.0000
vn 1.0000 0.0000 0.0000
vn 0.0000 1.0000 0.0000
vn -1.0000 0.0000 0.0000
vn 0.7071 -0.7071 0.0000
vn -0.7071 -0.7071 0.0000
vn 0.7071 0.7071 0.0000
vn -0.7071 0.7071 0.0000
# 10 vertex normals

vt 1.0000 0.1333 0.0000
vt 1.0000 0.8667 0.0000
vt 0.8667 1.0000 0.0000
vt 0.0000 0.8667 0.0000
vt 0.1333 1.0000 0.0000
vt 0.0000 0.1333 0.0000
vt 0.1333 0.0000 0.0000
vt 0.8667 0.0000 0.0000
vt 0.1232 -0.0000 0.0000
vt 0.1232 1.0000 0.0000
vt 0.8768 1.0000 0.0000
vt 0.8768 0.0000 0.0000
# 12 texture coords

g Box002
usemtl wire_134110008
s 2
f 1/1/1 2/2/1 3/3/1 4/4/1 
f 3/3/1 5/5/1 4/4/1 
f 4/4/1 6/6/1 7/7/1 1/1/1 
f 8/8/1 1/1/1 7/7/1 
s 4
f 9/7/2 10/8/2 11/1/2 12/3/2 
f 11/1/2 13/2/2 12/3/2 
f 12/3/2 14/5/2 15/4/2 9/7/2 
f 16/6/2 9/7/2 15/4/2 
s 8
f 8/7/3 7/8/3 10/3/3 9/5/3 
s 16
f 6/7/4 4/8/4 13/3/4 11/5/4 
s 32
f 5/7/5 3/8/5 14/3/5 12/5/5 
s 64
f 2/7/6 1/8/6 16/3/6 15/5/6 
s off
f 7/9/7 6/7/7 11/5/7 10/10/7 
f 9/11/8 16/3/8 1/8/8 8/12/8 
f 4/9/9 5/7/9 12/5/9 13/10/9 
f 3/9/10 2/7/10 15/5/10 14/10/10 
# 12 polygons - 4 triangles

#
# object Box004
#

v  -1.0590 -10.5902 0.0000
v  -1.0590 10.5902 0.0000
v  1.0590 10.5902 0.0000
v  1.0590 -10.5902 0.0000
v  -1.0590 -10.5902 2.8882
v  1.0590 -10.5902 2.8882
v  1.0590 10.5902 2.8882
v  -1.0590 10.5902 2.8882
v  1.4441 -10.5902 0.3851
v  1.4441 10.5902 0.3851
v  1.4441 10.5902 2.5031
v  1.4441 -10.5902 2.5031
v  -1.4441 10.5902 0.3851
v  -1.4441 -10.5902 0.3851
v  -1.4441 -10.5902 2.5031
v  -1.4441 10.5902 2.5031
# 16 vertices

vn 0.0000 0.0000 -1.0000
vn 0.0000 0.0000 1.0000
vn 1.0000 0.0000 0.0000
vn -1.0000 0.0000 0.0000
vn -0.7071 0.0000 -0.7071
vn 0.7071 0.0000 -0.7071
vn 0.7071 0.0000 0.7071
vn -0.7071 0.0000 0.7071
# 8 vertex normals

vt 0.8667 0.0000 0.0000
vt 0.8667 1.0000 0.0000
vt 0.1333 1.0000 0.0000
vt 0.1333 0.0000 0.0000
vt 0.0000 0.1333 0.0000
vt 1.0000 0.1333 0.0000
vt 1.0000 0.8667 0.0000
vt 0.0000 0.8667 0.0000
vt 1.0000 0.1050 0.0000
vt 0.0000 0.1050 0.0000
vt -0.0000 0.8950 0.0000
vt 1.0000 0.8950 0.0000
# 12 texture coords

g Box004
usemtl wire_177148026
s 2
f 17/13/11 18/14/11 19/15/11 20/16/11 
s 4
f 21/16/12 22/13/12 23/14/12 24/15/12 
s 16
f 25/17/13 26/18/13 27/19/13 28/20/13 
s 64
f 29/17/14 30/18/14 31/19/14 32/20/14 
s off
f 17/21/15 30/18/15 29/17/15 18/22/15 
f 19/21/16 26/18/16 25/17/16 20/22/16 
f 22/23/17 28/20/17 27/19/17 23/24/17 
f 24/23/18 32/20/18 31/19/18 21/24/18 
# 8 polygons

#
# object Box005
#

v  -1.5000 10.4000 0.0000
v  -1.5000 12.6000 0.0000
v  -1.1000 13.0000 0.0000
v  1.5000 12.6000 0.0000
v  1.1000 13.0000 0.0000
v  1.5000 10.4000 0.0000
v  1.1000 10.0000 0.0000
v  -1.1000 10.0000 0.0000
v  -1.1000 10.0000 56.0000
v  1.1000 10.0000 56.0000
v  1.5000 10.4000 56.0000
v  1.1000 13.0000 56.0000
v  1.5000 12.6000 56.0000
v  -1.1000 13.0000 56.0000
v  -1.5000 12.6000 56.0000
v  -1.5000 10.4000 56.0000
# 16 vertices

vn 0.0000 0.0000 -1.0000
vn 0.0000 0.0000 1.0000
vn 0.0000 -1.0000 0.0000
vn 1.0000 0.0000 0.0000
vn 0.0000 1.0000 0.0000
vn -1.0000 0.0000 0.0000
vn 0.7071 -0.7071 0.0000
vn -0.7071 -0.7071 0.0000
vn 0.7071 0.7071 0.0000
vn -0.7071 0.7071 0.0000
# 10 vertex normals

vt 1.0000 0.1333 0.0000
vt 1.0000 0.8667 0.0000
vt 0.8667 1.0000 0.0000
vt 0.0000 0.8667 0.0000
vt 0.1333 1.0000 0.0000
vt 0.0000 0.1333 0.0000
vt 0.1333 0.0000 0.0000
vt 0.8667 0.0000 0.0000
vt 0.1232 -0.0000 0.0000
vt 0.1232 1.0000 0.0000
vt 0.8768 1.0000 0.0000
vt 0.8768 0.0000 0.0000
# 12 texture coords

g Box005
usemtl wire_134110008
s 2
f 33/25/19 34/26/19 35/27/19 36/28/19 
f 35/27/19 37/29/19 36/28/19 
f 36/28/19 38/30/19 39/31/19 33/25/19 
f 40/32/19 33/25/19 39/31/19 
s 4
f 41/31/20 42/32/20 43/25/20 44/27/20 
f 43/25/20 45/26/20 44/27/20 
f 44/27/20 46/29/20 47/28/20 41/31/20 
f 48/30/20 41/31/20 47/28/20 
s 8
f 40/31/21 39/32/21 42/27/21 41/29/21 
s 16
f 38/31/22 36/32/22 45/27/22 43/29/22 
s 32
f 37/31/23 35/32/23 46/27/23 44/29/23 
s 64
f 34/31/24 33/32/24 48/27/24 47/29/24 
s off
f 39/33/25 38/31/25 43/29/25 42/34/25 
f 41/35/26 48/27/26 33/32/26 40/36/26 
f 36/33/27 37/31/27 44/29/27 45/34/27 
f 35/33/28 34/31/28 47/29/28 46/34/28 
# 12 polygons - 4 triangles

#
# object Box006
#

v  -1.0590 -10.5902 53.0000
v  -1.0590 10.5902 53.0000
v  1.0590 10.5902 53.0000
v  1.0590 -10.5902 53.0000
v  -1.0590 -10.5902 55.8882
v  1.0590 -10.5902 55.8882
v  1.0590 10.5902 55.8882
v  -1.0590 10.5902 55.8882
v  1.4441 -10.5902 53.3851
v  1.4441 10.5902 53.3851
v  1.4441 10.5902 55.5031
v  1.4441 -10.5902 55.5031
v  -1.4441 10.5902 53.3851
v  -1.4441 -10.5902 53.3851
v  -1.4441 -10.5902 55.5031
v  -1.4441 10.5902 55.5031
# 16 vertices

vn 0.0000 0.0000 -1.0000
vn 0.0000 0.0000 1.0000
vn 1.0000 0.0000 0.0000
vn -1.0000 0.0000 0.0000
vn -0.7071 0.0000 -0.7071
vn 0.7071 0.0000 -0.7071
vn 0.7071 0.0000 0.7071
vn -0.7071 0.0000 0.7071
# 8 vertex normals

vt 0.8667 0.0000 0.0000
vt 0.8667 1.0000 0.0000
vt 0.1333 1.0000 0.0000
vt 0.1333 0.0000 0.0000
vt 0.0000 0.1333 0.0000
vt 1.0000 0.1333 0.0000
vt 1.0000 0.8667 0.0000
vt 0.0000 0.8667 0.0000
vt 1.0000 0.1050 0.0000
vt 0.0000 0.1050 0.0000
vt -0.0000 0.8950 0.0000
vt 1.0000 0.8950 0.0000
# 12 texture coords

g Box006
usemtl wire_177148026
s 2
f 49/37/29 50/38/29 51/39/29 52/40/29 
s 4
f 53/40/30 54/37/30 55/38/30 56/39/30 
s 16
f 57/41/31 58/42/31 59/43/31 60/44/31 
s 64
f 61/41/32 62/42/32 63/43/32 64/44/32 
s off
f 49/45/33 62/42/33 61/41/33 50/46/33 
f 51/45/34 58/42/34 57/41/34 52/46/34 
f 54/47/35 60/44/35 59/43/35 55/48/35 
f 56/47/36 64/44/36 63/43/36 53/48/36 
# 8 polygons

#
# object Box007
#

v  -0.7500 -12.5000 3.0000
v  -0.7500 12.5000 3.0000
v  0.7500 12.5000 3.0000
v  0.7500 -12.5000 3.0000
v  -0.7500 -12.5000 53.0000
v  0.7500 -12.5000 53.0000
v  0.7500 12.5000 53.0000
v  -0.7500 12.5000 53.0000
# 8 vertices

vn 0.0000 0.0000 -1.0000
vn 0.0000 0.0000 1.0000
vn 0.0000 -1.0000 0.0000
vn 1.0000 0.0000 0.0000
vn 0.0000 1.0000 0.0000
vn -1.0000 0.0000 0.0000
# 6 vertex normals

vt 1.0000 0.0000 0.0000
vt 1.0000 1.0000 0.0000
vt 0.0000 1.0000 0.0000
vt 0.0000 0.0000 0.0000
# 4 texture coords

g Box007
usemtl 01___Default
s 2
f 65/49/37 66/50/37 67/51/37 68/52/37 
s 4
f 69/52/38 70/49/38 71/50/38 72/51/38 
s 8
f 65/52/39 68/49/39 70/50/39 69/51/39 
s 16
f 68/52/40 67/49/40 71/50/40 70/51/40 
s 32
f 67/52/41 66/49/41 72/50/41 71/51/41 
s 64
f 66/52/42 65/49/42 69/50/42 72/51/42 
# 6 polygons

